<svg xmlns="http://www.w3.org/2000/svg" viewBox="0 0 256 256" role="img" aria-labelledby="title desc">
  <title id="title">Fourth Temple logo</title>
  <desc id="desc">A gold and ivory temple mark with four columns on a dark field.</desc>
  <defs>
    <linearGradient id="stone" x1="64" y1="42" x2="198" y2="219" gradientUnits="userSpaceOnUse">
      <stop offset="0" stop-color="#f7df95" />
      <stop offset="0.48" stop-color="#dfb45d" />
      <stop offset="1" stop-color="#9f7435" />
    </linearGradient>
    <linearGradient id="light" x1="80" y1="78" x2="174" y2="192" gradientUnits="userSpaceOnUse">
      <stop offset="0" stop-color="#fff7df" />
      <stop offset="1" stop-color="#e7d4a5" />
    </linearGradient>
  </defs>
  <rect width="256" height="256" rx="34" fill="#10151a" />
  <circle cx="128" cy="128" r="103" fill="#141b20" stroke="#dfb45d" stroke-width="5" />
  <path d="M50 92 128 44l78 48v16H50Z" fill="url(#stone)" />
  <path d="M128 58 69 94h118Z" fill="#f4ead6" opacity="0.24" />
  <rect x="58" y="116" width="140" height="14" rx="3" fill="url(#light)" />
  <rect x="64" y="186" width="128" height="14" rx="3" fill="url(#light)" />
  <rect x="52" y="207" width="156" height="15" rx="4" fill="url(#stone)" />
  <rect x="74" y="131" width="20" height="72" rx="4" fill="url(#stone)" />
  <rect x="104" y="131" width="18" height="72" rx="4" fill="url(#stone)" />
  <rect x="134" y="131" width="18" height="72" rx="4" fill="url(#stone)" />
  <rect x="164" y="131" width="20" height="72" rx="4" fill="url(#stone)" />
  <path d="M101 94h13l14-18 14 18h13l-27-34Z" fill="#10151a" opacity="0.84" />
  <path d="M84 142h11v40H84Zm36 0h11v40h-11Zm36 0h11v40h-11Z" fill="#f4ead6" opacity="0.16" />
  <path d="M70 96h116" stroke="#10151a" stroke-width="4" stroke-linecap="round" opacity="0.35" />
  <path d="M69 222h118" stroke="#f4ead6" stroke-width="3" stroke-linecap="round" opacity="0.45" />
</svg>
